<mxfile host="Electron" modified="2024-02-08T11:04:56.505Z" agent="Mozilla/5.0 (Windows NT 10.0; Win64; x64) AppleWebKit/537.36 (KHTML, like Gecko) draw.io/22.1.21 Chrome/120.0.6099.109 Electron/28.1.0 Safari/537.36" etag="Pe2QXRPlxcwHzOgHGeP5" version="22.1.21" type="device">
  <diagram name="PÃ¡gina-1" id="BtD-3cjETYa1kSn_i-kz">
    <mxGraphModel dx="3143" dy="1500" grid="1" gridSize="10" guides="1" tooltips="1" connect="1" arrows="1" fold="1" page="1" pageScale="1" pageWidth="827" pageHeight="1169" math="0" shadow="0">
      <root>
        <mxCell id="0" />
        <mxCell id="1" parent="0" />
        <mxCell id="eX_MBotk1fY-qvMIUrsy-57" style="edgeStyle=orthogonalEdgeStyle;rounded=0;orthogonalLoop=1;jettySize=auto;html=1;entryX=0;entryY=0.5;entryDx=0;entryDy=0;" edge="1" parent="1" source="eX_MBotk1fY-qvMIUrsy-49" target="eX_MBotk1fY-qvMIUrsy-55">
          <mxGeometry relative="1" as="geometry">
            <Array as="points">
              <mxPoint x="178" y="906" />
            </Array>
          </mxGeometry>
        </mxCell>
        <mxCell id="eX_MBotk1fY-qvMIUrsy-22" style="edgeStyle=orthogonalEdgeStyle;rounded=0;orthogonalLoop=1;jettySize=auto;html=1;entryX=1;entryY=0.5;entryDx=0;entryDy=0;" edge="1" parent="1" source="eX_MBotk1fY-qvMIUrsy-1" target="eX_MBotk1fY-qvMIUrsy-4">
          <mxGeometry relative="1" as="geometry" />
        </mxCell>
        <mxCell id="eX_MBotk1fY-qvMIUrsy-1" value="" style="rounded=0;whiteSpace=wrap;html=1;" vertex="1" parent="1">
          <mxGeometry x="387" y="122" width="120" height="60" as="geometry" />
        </mxCell>
        <mxCell id="eX_MBotk1fY-qvMIUrsy-2" value="E_W8_INI" style="text;html=1;align=center;verticalAlign=middle;resizable=0;points=[];autosize=1;strokeColor=none;fillColor=none;" vertex="1" parent="1">
          <mxGeometry x="457" y="92" width="80" height="30" as="geometry" />
        </mxCell>
        <mxCell id="eX_MBotk1fY-qvMIUrsy-12" style="edgeStyle=orthogonalEdgeStyle;rounded=0;orthogonalLoop=1;jettySize=auto;html=1;" edge="1" parent="1" source="eX_MBotk1fY-qvMIUrsy-3" target="eX_MBotk1fY-qvMIUrsy-11">
          <mxGeometry relative="1" as="geometry" />
        </mxCell>
        <mxCell id="eX_MBotk1fY-qvMIUrsy-3" value="" style="whiteSpace=wrap;html=1;" vertex="1" parent="1">
          <mxGeometry x="387" y="233" width="120" height="60" as="geometry" />
        </mxCell>
        <mxCell id="eX_MBotk1fY-qvMIUrsy-23" style="edgeStyle=orthogonalEdgeStyle;rounded=0;orthogonalLoop=1;jettySize=auto;html=1;entryX=0.25;entryY=0;entryDx=0;entryDy=0;" edge="1" parent="1" source="eX_MBotk1fY-qvMIUrsy-4" target="eX_MBotk1fY-qvMIUrsy-1">
          <mxGeometry relative="1" as="geometry">
            <Array as="points">
              <mxPoint x="287" y="72" />
              <mxPoint x="417" y="72" />
            </Array>
          </mxGeometry>
        </mxCell>
        <mxCell id="eX_MBotk1fY-qvMIUrsy-24" style="edgeStyle=orthogonalEdgeStyle;rounded=0;orthogonalLoop=1;jettySize=auto;html=1;entryX=0;entryY=0.25;entryDx=0;entryDy=0;" edge="1" parent="1" source="eX_MBotk1fY-qvMIUrsy-4" target="eX_MBotk1fY-qvMIUrsy-3">
          <mxGeometry relative="1" as="geometry">
            <Array as="points">
              <mxPoint x="287" y="248" />
            </Array>
          </mxGeometry>
        </mxCell>
        <mxCell id="eX_MBotk1fY-qvMIUrsy-4" value="NONO_INIT_DONE" style="rhombus;whiteSpace=wrap;html=1;" vertex="1" parent="1">
          <mxGeometry x="227" y="92" width="120" height="120" as="geometry" />
        </mxCell>
        <mxCell id="eX_MBotk1fY-qvMIUrsy-8" value="0" style="text;html=1;align=center;verticalAlign=middle;resizable=0;points=[];autosize=1;strokeColor=none;fillColor=none;" vertex="1" parent="1">
          <mxGeometry x="257" y="42" width="30" height="30" as="geometry" />
        </mxCell>
        <mxCell id="eX_MBotk1fY-qvMIUrsy-9" value="1" style="text;html=1;align=center;verticalAlign=middle;resizable=0;points=[];autosize=1;strokeColor=none;fillColor=none;" vertex="1" parent="1">
          <mxGeometry x="257" y="212" width="30" height="30" as="geometry" />
        </mxCell>
        <mxCell id="eX_MBotk1fY-qvMIUrsy-10" value="E_W8_CMD" style="text;html=1;align=center;verticalAlign=middle;resizable=0;points=[];autosize=1;strokeColor=none;fillColor=none;" vertex="1" parent="1">
          <mxGeometry x="462" y="203" width="90" height="30" as="geometry" />
        </mxCell>
        <mxCell id="eX_MBotk1fY-qvMIUrsy-13" style="edgeStyle=orthogonalEdgeStyle;rounded=0;orthogonalLoop=1;jettySize=auto;html=1;entryX=0;entryY=0.5;entryDx=0;entryDy=0;" edge="1" parent="1" source="eX_MBotk1fY-qvMIUrsy-11" target="eX_MBotk1fY-qvMIUrsy-3">
          <mxGeometry relative="1" as="geometry">
            <Array as="points">
              <mxPoint x="287" y="383" />
              <mxPoint x="287" y="263" />
            </Array>
          </mxGeometry>
        </mxCell>
        <mxCell id="eX_MBotk1fY-qvMIUrsy-70" style="edgeStyle=orthogonalEdgeStyle;rounded=0;orthogonalLoop=1;jettySize=auto;html=1;" edge="1" parent="1" source="eX_MBotk1fY-qvMIUrsy-11" target="eX_MBotk1fY-qvMIUrsy-14">
          <mxGeometry relative="1" as="geometry" />
        </mxCell>
        <mxCell id="eX_MBotk1fY-qvMIUrsy-11" value="CMD_GO" style="rhombus;whiteSpace=wrap;html=1;" vertex="1" parent="1">
          <mxGeometry x="397" y="333" width="100" height="100" as="geometry" />
        </mxCell>
        <mxCell id="eX_MBotk1fY-qvMIUrsy-69" style="edgeStyle=orthogonalEdgeStyle;rounded=0;orthogonalLoop=1;jettySize=auto;html=1;entryX=0.5;entryY=0;entryDx=0;entryDy=0;" edge="1" parent="1" source="eX_MBotk1fY-qvMIUrsy-14" target="eX_MBotk1fY-qvMIUrsy-20">
          <mxGeometry relative="1" as="geometry" />
        </mxCell>
        <mxCell id="eX_MBotk1fY-qvMIUrsy-14" value="" style="whiteSpace=wrap;html=1;" vertex="1" parent="1">
          <mxGeometry x="387" y="540" width="120" height="60" as="geometry" />
        </mxCell>
        <mxCell id="eX_MBotk1fY-qvMIUrsy-15" value="LD_COMMAND" style="ellipse;whiteSpace=wrap;html=1;" vertex="1" parent="1">
          <mxGeometry x="392" y="450" width="110" height="50" as="geometry" />
        </mxCell>
        <mxCell id="eX_MBotk1fY-qvMIUrsy-17" value="E_CMD_DECODE" style="text;html=1;align=center;verticalAlign=middle;resizable=0;points=[];autosize=1;strokeColor=none;fillColor=none;" vertex="1" parent="1">
          <mxGeometry x="462" y="510" width="120" height="30" as="geometry" />
        </mxCell>
        <mxCell id="eX_MBotk1fY-qvMIUrsy-18" value="0" style="text;html=1;align=center;verticalAlign=middle;resizable=0;points=[];autosize=1;strokeColor=none;fillColor=none;" vertex="1" parent="1">
          <mxGeometry x="362" y="351" width="30" height="30" as="geometry" />
        </mxCell>
        <mxCell id="eX_MBotk1fY-qvMIUrsy-19" value="1" style="text;html=1;align=center;verticalAlign=middle;resizable=0;points=[];autosize=1;strokeColor=none;fillColor=none;" vertex="1" parent="1">
          <mxGeometry x="452" y="420" width="30" height="30" as="geometry" />
        </mxCell>
        <mxCell id="eX_MBotk1fY-qvMIUrsy-47" style="edgeStyle=orthogonalEdgeStyle;rounded=0;orthogonalLoop=1;jettySize=auto;html=1;" edge="1" parent="1" source="eX_MBotk1fY-qvMIUrsy-20" target="eX_MBotk1fY-qvMIUrsy-46">
          <mxGeometry relative="1" as="geometry" />
        </mxCell>
        <mxCell id="eX_MBotk1fY-qvMIUrsy-72" style="edgeStyle=orthogonalEdgeStyle;rounded=0;orthogonalLoop=1;jettySize=auto;html=1;entryX=0.25;entryY=0;entryDx=0;entryDy=0;" edge="1" parent="1" source="eX_MBotk1fY-qvMIUrsy-20" target="eX_MBotk1fY-qvMIUrsy-31">
          <mxGeometry relative="1" as="geometry" />
        </mxCell>
        <mxCell id="eX_MBotk1fY-qvMIUrsy-20" value="CURSOR_CMD" style="rhombus;whiteSpace=wrap;html=1;" vertex="1" parent="1">
          <mxGeometry x="397" y="630" width="100" height="100" as="geometry" />
        </mxCell>
        <mxCell id="eX_MBotk1fY-qvMIUrsy-25" value="" style="edgeStyle=none;orthogonalLoop=1;jettySize=auto;html=1;rounded=0;entryX=0.5;entryY=0;entryDx=0;entryDy=0;" edge="1" parent="1" target="eX_MBotk1fY-qvMIUrsy-1">
          <mxGeometry width="100" relative="1" as="geometry">
            <mxPoint x="467" y="52" as="sourcePoint" />
            <mxPoint x="517" y="72" as="targetPoint" />
            <Array as="points" />
          </mxGeometry>
        </mxCell>
        <mxCell id="eX_MBotk1fY-qvMIUrsy-26" value="RESET_L*" style="text;html=1;align=center;verticalAlign=middle;resizable=0;points=[];autosize=1;strokeColor=none;fillColor=none;" vertex="1" parent="1">
          <mxGeometry x="447" y="20" width="80" height="30" as="geometry" />
        </mxCell>
        <mxCell id="eX_MBotk1fY-qvMIUrsy-40" value="0" style="text;html=1;align=center;verticalAlign=middle;resizable=0;points=[];autosize=1;strokeColor=none;fillColor=none;" vertex="1" parent="1">
          <mxGeometry x="502" y="650" width="30" height="30" as="geometry" />
        </mxCell>
        <mxCell id="eX_MBotk1fY-qvMIUrsy-44" style="edgeStyle=orthogonalEdgeStyle;rounded=0;orthogonalLoop=1;jettySize=auto;html=1;entryX=1;entryY=0.25;entryDx=0;entryDy=0;" edge="1" parent="1" source="eX_MBotk1fY-qvMIUrsy-41" target="eX_MBotk1fY-qvMIUrsy-3">
          <mxGeometry relative="1" as="geometry" />
        </mxCell>
        <mxCell id="eX_MBotk1fY-qvMIUrsy-41" value="E_TOGGLE" style="text;html=1;align=center;verticalAlign=middle;resizable=0;points=[];autosize=1;strokeColor=#666666;fillColor=#f5f5f5;fontColor=#333333;" vertex="1" parent="1">
          <mxGeometry x="582" y="233" width="90" height="30" as="geometry" />
        </mxCell>
        <mxCell id="eX_MBotk1fY-qvMIUrsy-42" value="E_W8_CMD" style="text;html=1;align=center;verticalAlign=middle;resizable=0;points=[];autosize=1;strokeColor=#666666;fillColor=#f5f5f5;fontColor=#333333;" vertex="1" parent="1">
          <mxGeometry x="582" y="272" width="90" height="30" as="geometry" />
        </mxCell>
        <mxCell id="eX_MBotk1fY-qvMIUrsy-75" value="1" style="text;html=1;align=center;verticalAlign=middle;resizable=0;points=[];autosize=1;strokeColor=none;fillColor=none;" vertex="1" parent="1">
          <mxGeometry x="362" y="650" width="30" height="30" as="geometry" />
        </mxCell>
        <mxCell id="eX_MBotk1fY-qvMIUrsy-31" value="TOGGLE_CURSOR" style="whiteSpace=wrap;html=1;" vertex="1" parent="1">
          <mxGeometry x="539" y="772" width="120" height="60" as="geometry" />
        </mxCell>
        <mxCell id="eX_MBotk1fY-qvMIUrsy-74" style="edgeStyle=orthogonalEdgeStyle;rounded=0;orthogonalLoop=1;jettySize=auto;html=1;entryX=0;entryY=0.5;entryDx=0;entryDy=0;" edge="1" parent="1" source="eX_MBotk1fY-qvMIUrsy-32" target="eX_MBotk1fY-qvMIUrsy-31">
          <mxGeometry relative="1" as="geometry">
            <Array as="points">
              <mxPoint x="519" y="1029" />
              <mxPoint x="519" y="802" />
            </Array>
          </mxGeometry>
        </mxCell>
        <mxCell id="eX_MBotk1fY-qvMIUrsy-32" value="DONE_TOGGLE" style="rhombus;whiteSpace=wrap;html=1;" vertex="1" parent="1">
          <mxGeometry x="539" y="969" width="120" height="120" as="geometry" />
        </mxCell>
        <mxCell id="eX_MBotk1fY-qvMIUrsy-73" style="edgeStyle=orthogonalEdgeStyle;rounded=0;orthogonalLoop=1;jettySize=auto;html=1;" edge="1" parent="1" source="eX_MBotk1fY-qvMIUrsy-31" target="eX_MBotk1fY-qvMIUrsy-32">
          <mxGeometry relative="1" as="geometry" />
        </mxCell>
        <mxCell id="eX_MBotk1fY-qvMIUrsy-35" value="0" style="text;html=1;align=center;verticalAlign=middle;resizable=0;points=[];autosize=1;strokeColor=none;fillColor=none;" vertex="1" parent="1">
          <mxGeometry x="518" y="999" width="30" height="30" as="geometry" />
        </mxCell>
        <mxCell id="eX_MBotk1fY-qvMIUrsy-36" value="E_W8_CMD" style="text;html=1;align=center;verticalAlign=middle;resizable=0;points=[];autosize=1;strokeColor=#666666;fillColor=#f5f5f5;fontColor=#333333;" vertex="1" parent="1">
          <mxGeometry x="554" y="1119" width="90" height="30" as="geometry" />
        </mxCell>
        <mxCell id="eX_MBotk1fY-qvMIUrsy-38" style="edgeStyle=orthogonalEdgeStyle;rounded=0;orthogonalLoop=1;jettySize=auto;html=1;entryX=0.5;entryY=0;entryDx=0;entryDy=0;entryPerimeter=0;" edge="1" parent="1" source="eX_MBotk1fY-qvMIUrsy-32" target="eX_MBotk1fY-qvMIUrsy-36">
          <mxGeometry relative="1" as="geometry">
            <mxPoint x="599" y="1099" as="targetPoint" />
            <Array as="points" />
          </mxGeometry>
        </mxCell>
        <mxCell id="eX_MBotk1fY-qvMIUrsy-43" value="E_TOGGLE" style="text;html=1;align=center;verticalAlign=middle;resizable=0;points=[];autosize=1;strokeColor=none;fillColor=none;" vertex="1" parent="1">
          <mxGeometry x="619" y="742" width="90" height="30" as="geometry" />
        </mxCell>
        <mxCell id="eX_MBotk1fY-qvMIUrsy-45" value="1" style="text;html=1;align=center;verticalAlign=middle;resizable=0;points=[];autosize=1;strokeColor=none;fillColor=none;" vertex="1" parent="1">
          <mxGeometry x="604" y="1077" width="30" height="30" as="geometry" />
        </mxCell>
        <mxCell id="eX_MBotk1fY-qvMIUrsy-46" value="UPDATE_CURSOR" style="whiteSpace=wrap;html=1;" vertex="1" parent="1">
          <mxGeometry x="257" y="771" width="120" height="60" as="geometry" />
        </mxCell>
        <mxCell id="eX_MBotk1fY-qvMIUrsy-48" value="E_REDRAW_CELL" style="text;html=1;align=center;verticalAlign=middle;resizable=0;points=[];autosize=1;strokeColor=none;fillColor=none;" vertex="1" parent="1">
          <mxGeometry x="322" y="743" width="130" height="30" as="geometry" />
        </mxCell>
        <mxCell id="eX_MBotk1fY-qvMIUrsy-52" style="edgeStyle=orthogonalEdgeStyle;rounded=0;orthogonalLoop=1;jettySize=auto;html=1;entryX=0.25;entryY=0;entryDx=0;entryDy=0;" edge="1" parent="1" target="eX_MBotk1fY-qvMIUrsy-46">
          <mxGeometry relative="1" as="geometry">
            <mxPoint x="178" y="744" as="sourcePoint" />
            <Array as="points">
              <mxPoint x="177" y="744" />
              <mxPoint x="177" y="729" />
              <mxPoint x="287" y="729" />
            </Array>
          </mxGeometry>
        </mxCell>
        <mxCell id="eX_MBotk1fY-qvMIUrsy-49" value="DONE_UPDATE" style="rhombus;whiteSpace=wrap;html=1;" vertex="1" parent="1">
          <mxGeometry x="118" y="743" width="118" height="116" as="geometry" />
        </mxCell>
        <mxCell id="eX_MBotk1fY-qvMIUrsy-51" style="edgeStyle=orthogonalEdgeStyle;rounded=0;orthogonalLoop=1;jettySize=auto;html=1;entryX=1;entryY=0.5;entryDx=0;entryDy=0;" edge="1" parent="1" source="eX_MBotk1fY-qvMIUrsy-46" target="eX_MBotk1fY-qvMIUrsy-49">
          <mxGeometry relative="1" as="geometry" />
        </mxCell>
        <mxCell id="eX_MBotk1fY-qvMIUrsy-53" value="0" style="text;html=1;align=center;verticalAlign=middle;resizable=0;points=[];autosize=1;strokeColor=none;fillColor=none;" vertex="1" parent="1">
          <mxGeometry x="148" y="711" width="30" height="30" as="geometry" />
        </mxCell>
        <mxCell id="eX_MBotk1fY-qvMIUrsy-78" value="" style="edgeStyle=orthogonalEdgeStyle;rounded=0;orthogonalLoop=1;jettySize=auto;html=1;" edge="1" parent="1" source="eX_MBotk1fY-qvMIUrsy-54" target="eX_MBotk1fY-qvMIUrsy-56">
          <mxGeometry relative="1" as="geometry" />
        </mxCell>
        <mxCell id="eX_MBotk1fY-qvMIUrsy-54" value="INCR_DECR" style="ellipse;whiteSpace=wrap;html=1;" vertex="1" parent="1">
          <mxGeometry x="122" y="881" width="110" height="50" as="geometry" />
        </mxCell>
        <mxCell id="eX_MBotk1fY-qvMIUrsy-55" value="&lt;span style=&quot;color: rgb(0, 0, 0); font-family: Helvetica; font-size: 12px; font-style: normal; font-variant-ligatures: normal; font-variant-caps: normal; font-weight: 400; letter-spacing: normal; orphans: 2; text-align: center; text-indent: 0px; text-transform: none; widows: 2; word-spacing: 0px; -webkit-text-stroke-width: 0px; background-color: rgb(251, 251, 251); text-decoration-thickness: initial; text-decoration-style: initial; text-decoration-color: initial; float: none; display: inline !important;&quot;&gt;UPDATE_CURSOR&lt;/span&gt;" style="whiteSpace=wrap;html=1;" vertex="1" parent="1">
          <mxGeometry x="257" y="876" width="120" height="60" as="geometry" />
        </mxCell>
        <mxCell id="eX_MBotk1fY-qvMIUrsy-56" value="E_REDRAW_CURSOR" style="text;html=1;align=center;verticalAlign=middle;resizable=0;points=[];autosize=1;strokeColor=none;fillColor=none;" vertex="1" parent="1">
          <mxGeometry x="297" y="846" width="150" height="30" as="geometry" />
        </mxCell>
        <mxCell id="eX_MBotk1fY-qvMIUrsy-58" value="1" style="text;html=1;align=center;verticalAlign=middle;resizable=0;points=[];autosize=1;strokeColor=none;fillColor=none;" vertex="1" parent="1">
          <mxGeometry x="143" y="849" width="30" height="30" as="geometry" />
        </mxCell>
        <mxCell id="eX_MBotk1fY-qvMIUrsy-62" style="edgeStyle=orthogonalEdgeStyle;rounded=0;orthogonalLoop=1;jettySize=auto;html=1;entryX=1;entryY=0.5;entryDx=0;entryDy=0;" edge="1" parent="1" source="eX_MBotk1fY-qvMIUrsy-60" target="eX_MBotk1fY-qvMIUrsy-55">
          <mxGeometry relative="1" as="geometry">
            <Array as="points">
              <mxPoint x="397" y="1031" />
              <mxPoint x="397" y="906" />
            </Array>
          </mxGeometry>
        </mxCell>
        <mxCell id="eX_MBotk1fY-qvMIUrsy-67" style="edgeStyle=orthogonalEdgeStyle;rounded=0;orthogonalLoop=1;jettySize=auto;html=1;" edge="1" parent="1" source="eX_MBotk1fY-qvMIUrsy-60">
          <mxGeometry relative="1" as="geometry">
            <mxPoint x="317" y="1119" as="targetPoint" />
          </mxGeometry>
        </mxCell>
        <mxCell id="eX_MBotk1fY-qvMIUrsy-60" value="DONE_UPDATE" style="rhombus;whiteSpace=wrap;html=1;" vertex="1" parent="1">
          <mxGeometry x="257" y="969" width="120" height="124" as="geometry" />
        </mxCell>
        <mxCell id="eX_MBotk1fY-qvMIUrsy-61" style="edgeStyle=orthogonalEdgeStyle;rounded=0;orthogonalLoop=1;jettySize=auto;html=1;" edge="1" parent="1" source="eX_MBotk1fY-qvMIUrsy-55" target="eX_MBotk1fY-qvMIUrsy-60">
          <mxGeometry relative="1" as="geometry" />
        </mxCell>
        <mxCell id="eX_MBotk1fY-qvMIUrsy-64" value="E_W8_CMD" style="text;html=1;align=center;verticalAlign=middle;resizable=0;points=[];autosize=1;strokeColor=#666666;fillColor=#f5f5f5;fontColor=#333333;" vertex="1" parent="1">
          <mxGeometry x="272" y="1119" width="90" height="30" as="geometry" />
        </mxCell>
      </root>
    </mxGraphModel>
  </diagram>
</mxfile>
